<?xml version="1.0" encoding="utf-8"?>
<!-- Generator: Adobe Illustrator 26.0.3, SVG Export Plug-In . SVG Version: 6.00 Build 0)  -->
<svg version="1.1" id="Layer_1" xmlns="http://www.w3.org/2000/svg" xmlns:xlink="http://www.w3.org/1999/xlink" x="0px" y="0px"
	 viewBox="0 0 11 19" style="enable-background:new 0 0 11 19;" xml:space="preserve">
<style type="text/css">
	.st0{fill-rule:evenodd;clip-rule:evenodd;fill:#FFFFFF;}
</style>
<path class="st0" d="M0.3,18.7c-0.4-0.4-0.4-1,0-1.4c0,0,0,0,0,0L8.5,9L0.3,1.8c-0.4-0.4-0.4-1,0-1.4C0.7,0,1.3-0.1,1.7,0.2l9,8
	c0.4,0.4,0.5,1,0.1,1.4c0,0,0,0,0,0l-9,9C1.3,19.1,0.7,19.1,0.3,18.7C0.3,18.7,0.3,18.7,0.3,18.7z"/>
</svg>
