<svg width="28" height="28" viewBox="0 0 28 28" fill="none" xmlns="http://www.w3.org/2000/svg">
<path d="M23.1587 24.1379H4.8406C4.63743 24.1398 4.43763 24.0858 4.26306 23.9819C4.08849 23.8779 3.94586 23.7279 3.85076 23.5484C3.75325 23.3669 3.70669 23.1623 3.71601 22.9565C3.72534 22.7506 3.79021 22.5512 3.90374 22.3792C4.68852 21.1956 5.34793 19.9334 5.8713 18.6132C6.57578 16.8871 6.94807 15.0435 6.9686 13.1793V11.0865C6.94055 9.25375 7.62047 7.48081 8.8668 6.1368C10.1131 4.79278 11.8298 3.98126 13.6595 3.87119C14.6104 3.82536 15.5608 3.97304 16.453 4.30528C17.3452 4.63753 18.1606 5.14742 18.85 5.80408C19.5393 6.46074 20.0882 7.2505 20.4634 8.12552C20.8385 9.00054 21.0322 9.9426 21.0325 10.8947V13.1793C21.0325 16.9313 22.6974 20.255 24.0974 22.3788C24.2111 22.5507 24.2761 22.7502 24.2854 22.9561C24.2947 23.162 24.2481 23.3665 24.1504 23.548C24.0552 23.7279 23.9123 23.8781 23.7373 23.9822C23.5624 24.0863 23.3622 24.1401 23.1587 24.1379ZM14.0042 4.62C13.901 4.62 13.7978 4.62253 13.6947 4.62757C12.0594 4.72856 10.5261 5.45638 9.41393 6.6595C8.3018 7.86262 7.69656 9.44833 7.72422 11.0865V13.1804C7.70407 15.1394 7.31432 17.0769 6.57547 18.8913C6.03286 20.26 5.34936 21.5685 4.53601 22.7958C4.49676 22.8533 4.47415 22.9206 4.47068 22.9902C4.46721 23.0597 4.483 23.1289 4.51633 23.1901C4.54729 23.2489 4.59395 23.298 4.65112 23.3319C4.70829 23.3659 4.77375 23.3833 4.84022 23.3823H23.1587C23.2251 23.3833 23.2905 23.3659 23.3477 23.332C23.4048 23.2982 23.4515 23.2492 23.4825 23.1904C23.5159 23.1293 23.5317 23.0601 23.5282 22.9905C23.5247 22.921 23.5021 22.8537 23.4629 22.7962C22.0088 20.5838 20.2754 17.1205 20.2754 13.1808V10.8947C20.2747 9.23132 19.6139 7.63626 18.438 6.45978C17.2622 5.28331 15.6675 4.62161 14.0042 4.62Z" fill="white"/>
<path d="M22.4198 20.589H5.58199C5.48164 20.589 5.3854 20.5492 5.31444 20.4782C5.24348 20.4072 5.20361 20.311 5.20361 20.2107C5.20361 20.1103 5.24348 20.0141 5.31444 19.9431C5.3854 19.8721 5.48164 19.8323 5.58199 19.8323H22.4198C22.5202 19.8323 22.6164 19.8721 22.6874 19.9431C22.7583 20.0141 22.7982 20.1103 22.7982 20.2107C22.7982 20.311 22.7583 20.4072 22.6874 20.4782C22.6164 20.5492 22.5202 20.589 22.4198 20.589Z" fill="white"/>
<path d="M13.9998 27.2432C13.0762 27.2422 12.1907 26.8749 11.5376 26.2217C10.8845 25.5686 10.5171 24.6831 10.5161 23.7595C10.5161 23.6591 10.556 23.5629 10.6269 23.4919C10.6979 23.421 10.7941 23.3811 10.8945 23.3811C10.9948 23.3811 11.0911 23.421 11.162 23.4919C11.233 23.5629 11.2729 23.6591 11.2729 23.7595C11.2729 24.4827 11.5602 25.1763 12.0716 25.6877C12.583 26.1992 13.2766 26.4865 13.9998 26.4865C14.7231 26.4865 15.4167 26.1992 15.9281 25.6877C16.4395 25.1763 16.7268 24.4827 16.7268 23.7595C16.7268 23.6591 16.7667 23.5629 16.8376 23.4919C16.9086 23.421 17.0048 23.3811 17.1052 23.3811C17.2055 23.3811 17.3018 23.421 17.3727 23.4919C17.4437 23.5629 17.4836 23.6591 17.4836 23.7595C17.4826 24.6831 17.1152 25.5686 16.4621 26.2217C15.809 26.8749 14.9235 27.2422 13.9998 27.2432Z" fill="white"/>
<path d="M12.226 4.86711C12.1257 4.86711 12.0294 4.82724 11.9585 4.75628C11.8875 4.68532 11.8477 4.58908 11.8477 4.48873V2.90938C11.8477 2.33842 12.0745 1.79085 12.4782 1.38713C12.8819 0.983402 13.4295 0.756592 14.0004 0.756592C14.5714 0.756592 15.119 0.983402 15.5227 1.38713C15.9264 1.79085 16.1532 2.33842 16.1532 2.90938V4.47965C16.1532 4.58 16.1134 4.67624 16.0424 4.7472C15.9714 4.81816 15.8752 4.85802 15.7748 4.85802C15.6745 4.85802 15.5783 4.81816 15.5073 4.7472C15.4363 4.67624 15.3965 4.58 15.3965 4.47965V2.90938C15.3965 2.53913 15.2494 2.18404 14.9876 1.92224C14.7258 1.66043 14.3707 1.51335 14.0004 1.51335C13.6302 1.51335 13.2751 1.66043 13.0133 1.92224C12.7515 2.18404 12.6044 2.53913 12.6044 2.90938V4.48873C12.6044 4.58908 12.5645 4.68532 12.4936 4.75628C12.4226 4.82724 12.3264 4.86711 12.226 4.86711Z" fill="white"/>
</svg>
