<?xml version="1.0" encoding="utf-8"?>
<!-- Generator: Adobe Illustrator 26.0.3, SVG Export Plug-In . SVG Version: 6.00 Build 0)  -->
<svg version="1.1" id="Layer_1" xmlns:svgjs="http://svgjs.com/svgjs"
	 xmlns="http://www.w3.org/2000/svg" xmlns:xlink="http://www.w3.org/1999/xlink" x="0px" y="0px" viewBox="0 0 512 512"
	 style="enable-background:new 0 0 512 512;" xml:space="preserve">
<g>
	<path d="M405.4,362.6c-35.2,0-63.8,28.6-63.8,63.8c0,35.2,28.6,63.8,63.8,63.8s63.8-28.6,63.8-63.8
		C469.2,391.2,440.6,362.6,405.4,362.6z M405.4,452c-14.1,0-25.5-11.5-25.5-25.5c0-14.1,11.5-25.5,25.5-25.5
		c14.1,0,25.5,11.5,25.5,25.5C430.9,440.5,419.5,452,405.4,452z M173.7,362.6c-35.2,0-63.8,28.6-63.8,63.8
		c0,35.2,28.6,63.8,63.8,63.8c35.2,0,63.8-28.6,63.8-63.8C237.5,391.2,208.8,362.6,173.7,362.6z M173.7,452
		c-14.1,0-25.5-11.5-25.5-25.5c0-14.1,11.5-25.5,25.5-25.5c14.1,0,25.5,11.5,25.5,25.5C199.2,440.5,187.7,452,173.7,452z"/>
	<path d="M511.4,132.3l-46.6,188.3c-2.1,8.5-9.8,14.5-18.6,14.5H148.1c-8.9,0-16.6-6.1-18.6-14.7L67.2,60H19.2C8.6,60,0,51.4,0,40.9
		c0-10.6,8.6-19.2,19.2-19.1h63.2c8.9,0,16.6,6.1,18.6,14.7l17.2,72.1h374.6c5.9,0,11.5,2.7,15.1,7.3S512.8,126.6,511.4,132.3z"/>
</g>
</svg>
