<svg width="21" height="21" viewBox="0 0 21 21" fill="none" xmlns="http://www.w3.org/2000/svg">
<path d="M17.0141 20.3283L13.5955 16.9102L11.9384 18.5673C11.7953 18.7104 11.5876 18.7693 11.3896 18.7236C11.2924 18.7006 11.2026 18.6532 11.1289 18.5858C11.0552 18.5184 11 18.4333 10.9685 18.3385L7.65371 8.39469C7.61924 8.29147 7.6142 8.18069 7.63916 8.07476C7.66412 7.96884 7.7181 7.87196 7.79504 7.795C7.95125 7.63879 8.18414 7.58156 8.39473 7.65367L18.3385 10.9684C18.4333 10.9999 18.5185 11.0552 18.5859 11.1289C18.6533 11.2026 18.7007 11.2923 18.7236 11.3896C18.7464 11.4868 18.744 11.5882 18.7167 11.6842C18.6894 11.7803 18.638 11.8677 18.5674 11.9383L16.9103 13.5954L20.3284 17.0141C20.5572 17.2429 20.5572 17.6138 20.3284 17.8426L17.8427 20.3283C17.6138 20.5572 17.243 20.5572 17.0141 20.3283ZM8.11719 5.1875C7.79332 5.1875 7.53125 4.92543 7.53125 4.60156V1.08594C7.53125 0.76207 7.79332 0.5 8.11719 0.5C8.44106 0.5 8.70313 0.76207 8.70313 1.08594V4.60156C8.70313 4.92543 8.44106 5.1875 8.11719 5.1875ZM5.21727 6.04582L2.73102 3.55957C2.50215 3.3307 2.50215 2.95988 2.73102 2.73102C2.95988 2.50215 3.3307 2.50215 3.55957 2.73102L6.04578 5.21723C6.27465 5.44609 6.27465 5.81691 6.04578 6.04578C5.81691 6.27469 5.44613 6.27469 5.21727 6.04582ZM2.73102 13.5034C2.50215 13.2745 2.50215 12.9037 2.73102 12.6748L5.21723 10.1886C5.44609 9.95973 5.81691 9.95973 6.04578 10.1886C6.27465 10.4175 6.27465 10.7883 6.04578 11.0171L3.55957 13.5034C3.3307 13.7322 2.95992 13.7322 2.73102 13.5034ZM10.1886 6.04582C9.95969 5.81695 9.95969 5.44613 10.1886 5.21727L12.6748 2.73106C12.9036 2.50219 13.2745 2.50219 13.5033 2.73106C13.7322 2.95992 13.7322 3.33074 13.5033 3.55961L11.0171 6.04582C10.7882 6.27469 10.4175 6.27469 10.1886 6.04582ZM4.60156 8.70313H1.08594C0.76207 8.70313 0.5 8.44106 0.5 8.11719C0.5 7.79332 0.76207 7.53125 1.08594 7.53125H4.60156C4.92543 7.53125 5.1875 7.79332 5.1875 8.11719C5.1875 8.44106 4.92543 8.70313 4.60156 8.70313Z" fill="white"/>
</svg>
