<svg width="35" height="36" viewBox="0 0 35 36" fill="none" xmlns="http://www.w3.org/2000/svg">
<g clip-path="url(#clip0_102_1239)">
<path d="M21.7397 8.60948C21.7876 8.55468 22.0137 8.3766 22.8904 8.3766H25.7739C26.7123 8.3766 27.4726 7.61633 27.4726 6.67797V1.63688C27.4726 0.69852 26.7123 -0.0617542 25.7739 -0.0617542L21.4931 -0.0686035C18.8493 -0.0686035 16.6027 0.801259 14.9931 2.45194C13.3904 4.09578 12.5479 6.3903 12.5479 9.08208V11.8013H9.27395C8.33559 11.8013 7.57532 12.5615 7.57532 13.4999V18.9245C7.57532 19.8629 8.33559 20.6232 9.27395 20.6232H12.5479V33.2876C12.5479 34.2259 13.3082 34.9862 14.2466 34.9862H19.863C20.8013 34.9862 21.5616 34.2259 21.5616 33.2876V20.63H25.5685C26.5068 20.63 27.2671 19.8698 27.2671 18.9314V13.5067C27.2671 12.8903 26.9315 12.3218 26.3904 12.0204C26.137 11.8835 25.8493 11.8081 25.5479 11.8081H21.5548V9.65742C21.5616 8.95194 21.6575 8.69852 21.7397 8.60948Z" fill="white"/>
</g>
<defs>
<clipPath id="clip0_102_1239">
<rect width="35" height="35.0685" fill="white"/>
</clipPath>
</defs>
</svg>
