<svg width="106" height="60" viewBox="0 0 106 60" fill="none" xmlns="http://www.w3.org/2000/svg">
<path d="M42.2622 49.4587C37.9464 52.1783 32.849 53.386 27.7718 52.8918C22.6946 52.3976 17.9257 50.2295 14.2155 46.7287C10.5052 43.2278 8.06407 38.5928 7.27609 33.5528C6.48811 28.5128 7.39801 23.3539 9.86264 18.8876C12.3273 14.4213 16.2068 10.9011 20.8908 8.88077C25.5749 6.86043 30.7977 6.45461 35.7376 7.72716C40.6775 8.9997 45.0542 11.8784 48.1792 15.9104C51.3042 19.9424 53.0002 24.8121 53.0002 29.9133C52.9803 35.1758 54.7658 40.286 58.0586 44.3911C61.3514 48.4963 65.9524 51.3481 71.0938 52.4706C76.2353 53.5932 81.6062 52.9187 86.3104 50.5596C91.0146 48.2005 94.7675 44.2996 96.9429 39.5077C99.1183 34.7158 99.5847 29.3228 98.2641 24.2286C96.9436 19.1344 93.916 14.6471 89.6867 11.5155C85.4573 8.38393 80.2819 6.79742 75.024 7.02073C69.7662 7.24404 64.744 9.26367 60.7954 12.7426" stroke="#FFD600" stroke-width="14"/>
</svg>
