<svg width="36" height="36" viewBox="0 0 36 36" fill="none" xmlns="http://www.w3.org/2000/svg">
<g clip-path="url(#clip0_102_1241)">
<path d="M26.2547 0H9.74531C4.37344 0 0 4.37344 0 9.74531V26.2547C0 31.6266 4.37344 36 9.74531 36H26.2547C31.6266 36 36 31.6266 36 26.2547V9.74531C36 4.37344 31.6266 0 26.2547 0ZM18 27.8438C12.5719 27.8438 8.15625 23.4281 8.15625 18C8.15625 12.5719 12.5719 8.15625 18 8.15625C23.4281 8.15625 27.8438 12.5719 27.8438 18C27.8438 23.4281 23.4281 27.8438 18 27.8438ZM28.0758 10.4766C26.4727 10.4766 25.1648 9.16875 25.1648 7.56562C25.1648 5.9625 26.4727 4.65469 28.0758 4.65469C29.6789 4.65469 30.9867 5.9625 30.9867 7.56562C30.9867 9.16875 29.6859 10.4766 28.0758 10.4766Z" fill="white"/>
<path d="M18 10.2656C13.7391 10.2656 10.2656 13.732 10.2656 18C10.2656 22.2609 13.732 25.7344 18 25.7344C22.2609 25.7344 25.7344 22.268 25.7344 18C25.7344 13.7391 22.2609 10.2656 18 10.2656Z" fill="white"/>
<path d="M28.0758 6.771C27.6328 6.771 27.2742 7.12959 27.2742 7.57256C27.2742 8.01553 27.6328 8.37412 28.0758 8.37412C28.5188 8.37412 28.8774 8.01553 28.8774 7.57256C28.8774 7.12959 28.5188 6.771 28.0758 6.771Z" fill="white"/>
</g>
<defs>
<clipPath id="clip0_102_1241">
<rect width="36" height="36" fill="white"/>
</clipPath>
</defs>
</svg>
