<svg width="30" height="30" viewBox="0 0 30 30" fill="none" xmlns="http://www.w3.org/2000/svg">
<g clip-path="url(#clip0_176_1523)">
<path fill-rule="evenodd" clip-rule="evenodd" d="M12.4954 17.5046C11.2465 16.258 10.1396 14.878 9.19864 13.3903C8.85508 12.8469 8.8587 12.194 9.20806 11.6546L10.5507 9.58147C10.8372 9.13895 10.8919 8.63406 10.7067 8.14063L8.39708 1.98494C8.03537 1.02092 6.89069 0.639475 6.02295 1.19387L2.80077 3.2526C1.33028 4.19218 0.647565 5.88116 1.05266 7.57858C2.2994 12.803 5.01868 17.5046 8.77705 21.2229C12.4954 24.9814 17.197 27.7007 22.4215 28.9473C24.1188 29.3524 25.8079 28.6697 26.7475 27.1992L28.8061 23.977C29.3606 23.1093 28.9791 21.9646 28.0151 21.6029L21.8594 19.2933C21.3659 19.1081 20.8611 19.1627 20.4186 19.4492L18.3455 20.7919C17.806 21.1413 17.1532 21.1449 16.6098 20.8014C15.122 19.8604 13.742 18.7535 12.4954 17.5046Z" fill="white"/>
</g>
<defs>
<clipPath id="clip0_176_1523">
<rect width="30" height="30" fill="white"/>
</clipPath>
</defs>
</svg>
