<svg width="28" height="33" viewBox="0 0 28 33" fill="none" xmlns="http://www.w3.org/2000/svg">
<g clip-path="url(#clip0_134_5349)">
<path d="M0.8125 30.953C0.8125 31.2526 0.931519 31.5399 1.14337 31.7518C1.35523 31.9636 1.64257 32.0827 1.94218 32.0827H26.8703C27.17 32.0827 27.4573 31.9636 27.6692 31.7518C27.881 31.5399 28 31.2526 28 30.953V27.564H0.8125V30.953Z" fill="#FFD600"/>
<path d="M26.8703 0H1.94218C1.64257 0 1.35523 0.119019 1.14337 0.330874C0.931519 0.54273 0.8125 0.830067 0.8125 1.12968V25.3047H28V1.12968C28 0.830067 27.881 0.54273 27.6692 0.330874C27.4573 0.119019 27.17 0 26.8703 0ZM10.0088 20.0412L7.78712 22.2629C7.68221 22.3679 7.55764 22.4511 7.42054 22.508C7.28343 22.5648 7.13647 22.594 6.98806 22.594C6.83965 22.594 6.69269 22.5648 6.55558 22.508C6.41848 22.4511 6.29391 22.3679 6.189 22.2629L5.28526 21.3592C5.07334 21.1472 4.95428 20.8598 4.95428 20.5601C4.95428 20.2604 5.07334 19.973 5.28526 19.761C5.49719 19.5491 5.78461 19.4301 6.08432 19.4301C6.38402 19.4301 6.67145 19.5491 6.88338 19.761L6.98806 19.8665L8.4107 18.4431C8.51563 18.3382 8.64021 18.2549 8.77731 18.1981C8.91441 18.1413 9.06136 18.1121 9.20975 18.1121C9.35815 18.1121 9.5051 18.1413 9.6422 18.1981C9.7793 18.2549 9.90388 18.3382 10.0088 18.4431C10.1137 18.548 10.197 18.6726 10.2538 18.8097C10.3106 18.9468 10.3398 19.0937 10.3398 19.2421C10.3398 19.3905 10.3106 19.5375 10.2538 19.6746C10.197 19.8117 10.1137 19.9363 10.0088 20.0412ZM10.0088 13.3385L7.78712 15.5602C7.68221 15.6651 7.55764 15.7484 7.42054 15.8052C7.28343 15.862 7.13647 15.8913 6.98806 15.8913C6.83965 15.8913 6.69269 15.862 6.55558 15.8052C6.41848 15.7484 6.29391 15.6651 6.189 15.5602L5.28526 14.6564C5.07334 14.4445 4.95428 14.1571 4.95428 13.8574C4.95428 13.5577 5.07334 13.2702 5.28526 13.0583C5.49719 12.8464 5.78461 12.7273 6.08432 12.7273C6.38402 12.7273 6.67145 12.8464 6.88338 13.0583L6.98806 13.1637L8.4107 11.7403C8.62262 11.5284 8.91005 11.4094 9.20975 11.4094C9.50946 11.4094 9.79689 11.5284 10.0088 11.7403C10.2207 11.9523 10.3398 12.2397 10.3398 12.5394C10.3398 12.8391 10.2207 13.1265 10.0088 13.3385ZM10.0088 6.59806L7.78712 8.81975C7.68221 8.92473 7.55764 9.00801 7.42054 9.06482C7.28343 9.12164 7.13647 9.15088 6.98806 9.15088C6.83965 9.15088 6.69269 9.12164 6.55558 9.06482C6.41848 9.00801 6.29391 8.92473 6.189 8.81975L5.28526 7.91601C5.07334 7.70409 4.95428 7.41666 4.95428 7.11696C4.95428 6.96856 4.98351 6.82161 5.0403 6.68451C5.09709 6.54741 5.18033 6.42283 5.28526 6.3179C5.3902 6.21297 5.51477 6.12973 5.65187 6.07294C5.78897 6.01615 5.93592 5.98692 6.08432 5.98692C6.38402 5.98692 6.67145 6.10598 6.88338 6.3179L6.98806 6.42334L8.4107 4.99994C8.51563 4.89501 8.64021 4.81177 8.77731 4.75498C8.91441 4.69819 9.06136 4.66896 9.20975 4.66896C9.35815 4.66896 9.5051 4.69819 9.6422 4.75498C9.7793 4.81177 9.90388 4.89501 10.0088 4.99994C10.1137 5.10488 10.197 5.22945 10.2538 5.36656C10.3106 5.50366 10.3398 5.6506 10.3398 5.799C10.3398 5.9474 10.3106 6.09435 10.2538 6.23145C10.197 6.36855 10.1137 6.49313 10.0088 6.59806ZM22.3516 21.5392H13.7096C13.41 21.5392 13.1227 21.4201 12.9108 21.2083C12.699 20.9964 12.58 20.7091 12.58 20.4095C12.58 20.1099 12.699 19.8225 12.9108 19.6107C13.1227 19.3988 13.41 19.2798 13.7096 19.2798H22.3516C22.6513 19.2798 22.9386 19.3988 23.1504 19.6107C23.3623 19.8225 23.4813 20.1099 23.4813 20.4095C23.4813 20.7091 23.3623 20.9964 23.1504 21.2083C22.9386 21.4201 22.6513 21.5392 22.3516 21.5392ZM22.3516 14.8364H13.7096C13.41 14.8364 13.1227 14.7174 12.9108 14.5055C12.699 14.2937 12.58 14.0063 12.58 13.7067C12.58 13.4071 12.699 13.1198 12.9108 12.9079C13.1227 12.6961 13.41 12.5771 13.7096 12.5771H22.3516C22.6513 12.5771 22.9386 12.6961 23.1504 12.9079C23.3623 13.1198 23.4813 13.4071 23.4813 13.7067C23.4813 14.0063 23.3623 14.2937 23.1504 14.5055C22.9386 14.7174 22.6513 14.8364 22.3516 14.8364ZM22.3516 8.09601H13.7096C13.41 8.09601 13.1227 7.97699 12.9108 7.76514C12.699 7.55328 12.58 7.26594 12.58 6.96633C12.58 6.66672 12.699 6.37939 12.9108 6.16753C13.1227 5.95568 13.41 5.83666 13.7096 5.83666H22.3516C22.6513 5.83666 22.9386 5.95568 23.1504 6.16753C23.3623 6.37939 23.4813 6.66672 23.4813 6.96633C23.4813 7.26594 23.3623 7.55328 23.1504 7.76514C22.9386 7.97699 22.6513 8.09601 22.3516 8.09601Z" fill="#FFD600"/>
</g>
<defs>
<clipPath id="clip0_134_5349">
<rect width="27.1875" height="32.0828" fill="white" transform="translate(0.8125)"/>
</clipPath>
</defs>
</svg>
