<svg width="32" height="36" viewBox="0 0 32 36" fill="none" xmlns="http://www.w3.org/2000/svg">
<g clip-path="url(#clip0_134_5361)">
<path d="M25.219 0.999293C24.8983 0.382906 24.3012 0 23.661 0H16.9697V8.79718H29.2768L25.219 0.999293Z" fill="#FFD600"/>
<path d="M15.0943 0H8.33992C7.69842 0 7.10136 0.383601 6.78061 1.00138L2.73779 8.79718H15.0942V0H15.0943Z" fill="#FFD600"/>
<path d="M2.06641 10.8818V33.1163C2.06641 34.4679 3.05616 35.5673 4.27222 35.5673H27.7285C28.9445 35.5673 29.9343 34.4679 29.9343 33.1163V10.8818H2.06641ZM20.2575 20.2322L15.407 25.6235C15.2238 25.8271 14.9837 25.9293 14.7436 25.9293C14.5035 25.9293 14.2634 25.8271 14.0808 25.6235L11.8069 23.0967C11.4412 22.6902 11.4412 22.0299 11.8069 21.6227C12.1733 21.2155 12.7673 21.2155 13.1337 21.6227L14.7437 23.4129L18.9315 18.7582C19.2978 18.351 19.8918 18.351 20.2576 18.7582C20.624 19.1654 20.624 19.825 20.2575 20.2322Z" fill="#FFD600"/>
</g>
<defs>
<clipPath id="clip0_134_5361">
<rect width="32" height="35.5675" fill="white"/>
</clipPath>
</defs>
</svg>
