<svg width="32" height="32" viewBox="0 0 32 32" fill="none" xmlns="http://www.w3.org/2000/svg">
<g clip-path="url(#clip0_134_5373)">
<path d="M20.7149 14.2069L20.6914 2.80662C20.6882 1.25906 19.4265 0 17.8789 0H2.8125C1.26169 0 0 1.26169 0 2.81244V14.1871C0 15.7379 1.26169 16.9996 2.8125 16.9996H4.75V18.8745C4.75 19.6453 5.63269 20.0874 6.25 19.6245L9.74875 17.0005L17.8939 17.0251C19.4754 17.0251 20.7181 15.751 20.7149 14.2069ZM10.3125 13.1872C9.79475 13.1872 9.375 12.7674 9.375 12.2497C9.375 11.7319 9.79475 11.3122 10.3125 11.3122C10.8302 11.3122 11.25 11.7319 11.25 12.2497C11.25 12.7674 10.8302 13.1872 10.3125 13.1872ZM11.3125 9.27644V9.37475C11.3125 9.8925 10.8927 10.3123 10.375 10.3123C9.85725 10.3123 9.4375 9.8925 9.4375 9.37475V8.78981C9.4375 8.17062 9.89769 7.63894 10.5079 7.553C10.9666 7.48844 11.3125 7.08944 11.3125 6.62475C11.3125 5.94156 10.5596 5.35575 9.69825 5.90694C9.262 6.18594 8.68231 6.0585 8.40331 5.62244C8.12431 5.18631 8.25169 4.60656 8.68781 4.3275C9.65469 3.709 10.7897 3.64519 11.7242 4.15662C12.6267 4.65081 13.1875 5.5965 13.1875 6.62481C13.1875 7.8285 12.4121 8.88562 11.3125 9.27644Z" fill="#FFD600"/>
<path d="M29.1875 13.1871H22.5877L22.5899 14.203C22.5946 16.5178 20.9369 18.3961 18.8127 18.812H27.25C27.7677 18.812 28.1875 19.2318 28.1875 19.7495C28.1875 20.2673 27.7677 20.687 27.25 20.687H16C15.4823 20.687 15.0625 20.2673 15.0625 19.7495C15.0625 19.3673 15.2916 19.0391 15.6196 18.8932L11.3125 18.8801V27.3118C11.3125 28.8625 12.5742 30.1242 14.125 30.1242H20.4662L24.0182 31.9002C24.6397 32.2109 25.375 31.7583 25.375 31.0617V30.1242H29.1875C30.7383 30.1242 32 28.8626 32 27.3118V15.9996C32 14.4488 30.7383 13.1871 29.1875 13.1871ZM27.25 24.4368H16C15.4823 24.4368 15.0625 24.0171 15.0625 23.4993C15.0625 22.9816 15.4823 22.5618 16 22.5618H27.25C27.7677 22.5618 28.1875 22.9816 28.1875 23.4993C28.1875 24.0171 27.7677 24.4368 27.25 24.4368Z" fill="#FFD600"/>
</g>
<defs>
<clipPath id="clip0_134_5373">
<rect width="32" height="32" fill="white"/>
</clipPath>
</defs>
</svg>
