<svg width="20" height="20" viewBox="0 0 20 20" fill="none" xmlns="http://www.w3.org/2000/svg">
<path d="M19.9478 7.67161C19.8169 7.26879 19.4577 6.98268 19.0327 6.94458L13.2602 6.42321L10.9776 1.10891C10.8092 0.719439 10.4259 0.467331 10 0.467331C9.57416 0.467331 9.19085 0.719439 9.02254 1.10982L6.73992 6.42321L0.966461 6.94458C0.542255 6.98359 0.18397 7.26879 0.0522831 7.67161C-0.0794037 8.07444 0.042212 8.51627 0.363113 8.79479L4.72648 12.6012L3.43982 18.2388C3.34567 18.6533 3.50742 19.0817 3.85319 19.3304C4.03905 19.4639 4.25649 19.5319 4.47577 19.5319C4.66483 19.5319 4.85236 19.4812 5.02067 19.3811L10 16.4209L14.9776 19.3811C15.3418 19.599 15.801 19.5791 16.146 19.3304C16.4919 19.081 16.6535 18.6524 16.5594 18.2388L15.2727 12.6012L19.6361 8.79555C19.957 8.51627 20.0795 8.0752 19.9478 7.67161Z" fill="#E5E5E5"/>
</svg>
