<svg width="180" height="180" viewBox="0 0 180 180" fill="none" xmlns="http://www.w3.org/2000/svg">
<path d="M180.001 90C180.001 139.706 139.707 180 90.001 180C40.2953 180 0.000976562 139.706 0.000976562 90C0.000976562 40.2944 40.2953 0 90.001 0C139.707 0 180.001 40.2944 180.001 90Z" fill="#FFD600"/>
<path d="M139.434 123.794L141.735 118.677L138.613 115.757L140.079 112.496L154.163 126.038L153.082 128.442L133.605 126.896L135.146 123.469L139.434 123.794ZM143.979 120.687L142.374 124.257L146.643 124.689L149.486 125.366L149.54 125.247L147.122 123.56L143.979 120.687Z" fill="black"/>
<path d="M132.578 145.948C132.238 145.649 131.938 145.305 131.678 144.915C131.407 144.539 131.214 144.126 131.098 143.677C130.995 143.24 130.97 142.767 131.023 142.258C131.089 141.761 131.265 141.244 131.55 140.707L131.433 140.604C131.023 140.939 130.585 141.215 130.118 141.43C129.652 141.646 129.166 141.764 128.662 141.784C128.158 141.805 127.647 141.715 127.128 141.515C126.598 141.328 126.065 140.999 125.529 140.529C124.822 139.909 124.339 139.22 124.08 138.46C123.834 137.712 123.771 136.939 123.891 136.142C124 135.358 124.257 134.577 124.662 133.798C125.067 133.02 125.568 132.29 126.165 131.61C126.36 131.388 126.612 131.1 126.922 130.747C127.22 130.407 127.56 130.046 127.942 129.663C128.299 129.282 128.681 128.9 129.087 128.515C129.482 128.144 129.868 127.823 130.245 127.552L143.783 139.425C143.604 139.708 143.397 140.024 143.161 140.372C142.913 140.734 142.642 141.109 142.347 141.498C142.052 141.887 141.744 142.277 141.425 142.668C141.094 143.072 140.762 143.464 140.429 143.843C139.867 144.484 139.27 145.059 138.637 145.569C138.007 146.104 137.361 146.497 136.699 146.75C136.026 147.016 135.341 147.098 134.644 146.996C133.947 146.894 133.258 146.544 132.578 145.948ZM128.365 133.574C128.078 133.901 127.842 134.25 127.656 134.619C127.46 135.002 127.336 135.38 127.287 135.753C127.25 136.138 127.293 136.511 127.416 136.873C127.538 137.235 127.769 137.565 128.109 137.863C128.541 138.242 128.956 138.455 129.353 138.503C129.751 138.551 130.136 138.495 130.507 138.335C130.892 138.186 131.253 137.959 131.591 137.653C131.928 137.348 132.246 137.025 132.544 136.685L133.801 135.253L130.014 131.931C129.93 131.974 129.819 132.061 129.68 132.194C129.54 132.326 129.395 132.465 129.245 132.611C129.096 132.781 128.94 132.945 128.778 133.104C128.617 133.287 128.479 133.444 128.365 133.574ZM135.084 137.905C134.923 138.089 134.746 138.304 134.553 138.55C134.348 138.81 134.19 139.03 134.078 139.21C133.799 139.845 133.662 140.477 133.666 141.105C133.659 141.747 133.91 142.291 134.421 142.739C134.761 143.037 135.099 143.218 135.436 143.282C135.773 143.347 136.105 143.325 136.431 143.217C136.745 143.123 137.049 142.961 137.342 142.732C137.635 142.503 137.914 142.239 138.178 141.938C138.476 141.598 138.745 141.278 138.984 140.979C139.223 140.679 139.399 140.44 139.51 140.26L135.841 137.042L135.084 137.905Z" fill="black"/>
<path d="M121.891 145.548C123.459 148.158 124.09 150.509 123.784 152.601C123.486 154.708 122.271 156.401 120.139 157.683C119.02 158.355 117.927 158.747 116.859 158.861C115.79 158.975 114.765 158.84 113.784 158.456C112.802 158.071 111.876 157.46 111.008 156.622C110.139 155.784 109.337 154.754 108.603 153.531C107.035 150.921 106.407 148.558 106.719 146.442C107.026 144.351 108.238 142.669 110.355 141.396C111.489 140.716 112.59 140.318 113.658 140.204C114.726 140.09 115.751 140.225 116.733 140.61C117.7 141.003 118.617 141.619 119.486 142.457C120.355 143.295 121.157 144.325 121.891 145.548ZM118.67 147.483C118.195 146.693 117.689 146.002 117.151 145.412C116.623 144.836 116.081 144.391 115.526 144.075C114.956 143.768 114.374 143.61 113.78 143.601C113.187 143.592 112.591 143.767 111.995 144.126C110.906 144.78 110.319 145.711 110.233 146.919C110.147 148.128 110.677 149.687 111.824 151.596C112.281 152.356 112.774 153.024 113.302 153.6C113.816 154.184 114.355 154.642 114.919 154.973C115.483 155.304 116.062 155.474 116.655 155.482C117.258 155.506 117.873 155.33 118.499 154.953C119.588 154.299 120.166 153.353 120.234 152.115C120.311 150.891 119.79 149.348 118.67 147.483Z" fill="black"/>
<path d="M93.5944 163.988L90.272 164.674L87.8851 153.122C87.6457 151.964 87.5931 150.935 87.7273 150.037C87.8615 149.139 88.1449 148.361 88.5775 147.703C89.01 147.045 89.5918 146.507 90.3227 146.09C91.0537 145.672 91.8877 145.367 92.8248 145.173C97.357 144.237 100.051 145.839 100.906 149.979L103.383 161.965L99.8815 162.689L97.5475 151.392C97.4032 150.694 97.2203 150.11 96.999 149.64C96.7641 149.191 96.4787 148.842 96.1427 148.591C95.8102 148.358 95.4254 148.215 94.9884 148.164C94.5548 148.129 94.0654 148.168 93.5202 148.28C92.4468 148.502 91.7331 148.961 91.3793 149.656C91.0254 150.35 90.9858 151.362 91.2604 152.691L93.5944 163.988Z" fill="black"/>
<path d="M67.0191 157.741L72.305 158.375L74.1028 143.399L77.6527 143.825L75.8548 158.801L81.1666 159.439L80.7871 162.6L66.6396 160.902L67.0191 157.741Z" fill="black"/>
<path d="M38.0532 142.81L35.2951 140.834L42.1642 131.245C42.8531 130.283 43.5731 129.547 44.3241 129.036C45.0751 128.525 45.8391 128.206 46.6159 128.077C47.3927 127.949 48.1824 128.012 48.985 128.265C49.7876 128.519 50.5778 128.925 51.3557 129.482C55.118 132.177 55.7682 135.243 53.3063 138.68L46.1789 148.63L43.2723 146.548L49.9894 137.171C50.4048 136.591 50.7099 136.06 50.9047 135.579C51.0752 135.102 51.1385 134.655 51.0945 134.239C51.0405 133.836 50.8842 133.457 50.6258 133.1C50.3573 132.758 49.9967 132.425 49.5441 132.101C48.6531 131.463 47.8322 131.249 47.0816 131.46C46.331 131.672 45.5605 132.329 44.7703 133.432L38.0532 142.81Z" fill="black"/>
<path d="M35.9976 117.451C35.5474 117.778 35.3044 118.213 35.2686 118.756C35.2226 119.284 35.2713 119.883 35.4146 120.554C35.5336 121.22 35.6885 121.936 35.8791 122.701C36.0455 123.462 36.137 124.223 36.1537 124.986C36.1461 125.744 35.9978 126.487 35.7088 127.213C35.4096 127.926 34.8449 128.584 34.0148 129.188C33.2972 129.71 32.5912 130.041 31.8966 130.18C31.188 130.33 30.4992 130.314 29.8302 130.134C29.1509 129.94 28.5069 129.602 27.898 129.119C27.289 128.637 26.7134 128.023 26.1709 127.278C25.5466 126.419 25.0355 125.554 24.6376 124.682C24.2257 123.82 23.9813 123.04 23.9045 122.343L26.9916 121.485C27.0198 121.938 27.1816 122.53 27.4772 123.262C27.7587 124.003 28.1604 124.733 28.6824 125.451C29.1736 126.126 29.6859 126.549 30.2194 126.721C30.7425 126.878 31.2292 126.793 31.6795 126.465C32.1015 126.158 32.3356 125.741 32.3816 125.212C32.4174 124.67 32.3757 124.066 32.2567 123.399C32.1274 122.719 31.9796 121.998 31.8133 121.237C31.6367 120.462 31.5522 119.695 31.5598 118.936C31.5431 118.174 31.6844 117.437 31.9836 116.724C32.2585 116.008 32.79 115.363 33.5779 114.79C34.3658 114.217 35.1454 113.854 35.9167 113.702C36.6637 113.546 37.4011 113.569 38.1289 113.771C38.8465 113.959 39.5424 114.324 40.2166 114.866C40.8805 115.394 41.5041 116.059 42.0875 116.861C42.8551 117.917 43.4321 118.917 43.8185 119.862C44.2049 120.807 44.4377 121.541 44.5171 122.065L41.3724 122.932C41.3443 122.716 41.2924 122.452 41.2169 122.142C41.1312 121.817 41.018 121.469 40.8772 121.098C40.7365 120.727 40.5714 120.352 40.3821 119.974C40.1825 119.581 39.9497 119.202 39.6836 118.836C39.0593 117.978 38.4427 117.426 37.8338 117.18C37.2006 116.931 36.5885 117.021 35.9976 117.451Z" fill="black"/>
<path d="M26.3654 96.0852L25.6096 89.5786L28.5908 89.2323L29.3465 95.739L26.3654 96.0852Z" fill="black"/>
<path d="M37.258 61.645L35.5059 66.9753L38.9167 69.5524L37.8002 72.9489L22.3755 60.9559L23.1986 58.4519L42.7307 57.9497L41.5572 61.5198L37.258 61.645ZM33.064 65.2111L34.2864 61.4923L29.9951 61.5101L27.0968 61.1343L27.056 61.2583L29.6368 62.6835L33.064 65.2111Z" fill="black"/>
<path d="M41.9819 38.7085C42.3497 38.972 42.682 39.2849 42.9788 39.6473C43.2857 39.9956 43.5188 40.3872 43.678 40.8223C43.823 41.2472 43.8942 41.7155 43.8915 42.2272C43.8747 42.7288 43.7506 43.2605 43.5193 43.8224L43.6466 43.9136C44.0212 43.54 44.4302 43.223 44.8735 42.9627C45.3167 42.7024 45.7882 42.5371 46.2879 42.467C46.7875 42.3969 47.3052 42.436 47.841 42.5844C48.3869 42.7186 48.9498 42.9934 49.5297 43.4088C50.2934 43.9559 50.8417 44.5947 51.1744 45.3253C51.493 46.0457 51.6315 46.8084 51.59 47.6133C51.5586 48.404 51.3796 49.2067 51.0529 50.0213C50.7262 50.836 50.2994 51.611 49.7726 52.3465C49.6003 52.587 49.3774 52.8981 49.1039 53.28C48.8405 53.6478 48.5376 54.0407 48.1952 54.4589C47.8771 54.8731 47.5348 55.2913 47.1681 55.7135C46.8116 56.1216 46.4592 56.4791 46.111 56.786L31.472 46.3001C31.6221 46.001 31.7975 45.6665 31.9982 45.2966C32.209 44.9126 32.4422 44.5125 32.6975 44.0962C32.9529 43.6799 33.2205 43.2616 33.5001 42.8413C33.7899 42.4068 34.0817 41.9845 34.3755 41.5744C34.872 40.8813 35.4098 40.25 35.989 39.6804C36.5642 39.0866 37.1685 38.6313 37.802 38.3146C38.4456 37.9838 39.1192 37.835 39.823 37.8683C40.5268 37.9016 41.2464 38.1817 41.9819 38.7085ZM47.3904 50.608C47.6436 50.2544 47.8444 49.8846 47.9925 49.4985C48.1508 49.0982 48.2363 48.71 48.2489 48.3339C48.2474 47.9476 48.168 47.5804 48.0107 47.2323C47.8534 46.8842 47.5909 46.5785 47.2232 46.3151C46.7564 45.9807 46.3228 45.8092 45.9224 45.8006C45.5219 45.792 45.1446 45.8855 44.7904 46.0812C44.4221 46.2668 44.085 46.5283 43.7791 46.8656C43.4733 47.203 43.1887 47.5555 42.9252 47.9233L41.8159 49.472L45.9105 52.4051C45.9895 52.3546 46.0917 52.2566 46.2173 52.1112C46.3429 51.9657 46.4736 51.8132 46.6093 51.6536C46.741 51.4698 46.8798 51.2909 47.0256 51.1172C47.1675 50.9192 47.289 50.7495 47.3904 50.608ZM40.2781 46.958C40.4199 46.76 40.5749 46.5287 40.7432 46.2639C40.9215 45.9851 41.0573 45.7506 41.1506 45.5606C41.3659 44.9016 41.4406 44.2596 41.3747 43.6345C41.3189 42.9953 41.0152 42.4782 40.4636 42.0831C40.0958 41.8196 39.7411 41.6725 39.3993 41.6417C39.0576 41.611 38.7299 41.6651 38.4162 41.8043C38.1126 41.9292 37.8262 42.12 37.5569 42.3765C37.2875 42.633 37.0364 42.9239 36.8033 43.2492C36.5399 43.6169 36.3038 43.9615 36.0951 44.2828C35.8863 44.6041 35.7353 44.8597 35.642 45.0497L39.6094 47.8915L40.2781 46.958Z" fill="black"/>
<path d="M52.571 38.0565C50.7531 35.6141 49.8933 33.337 49.9915 31.2253C50.0793 29.0995 51.1211 27.2939 53.1168 25.8084C54.1636 25.0293 55.2128 24.5304 56.2644 24.3115C57.3161 24.0926 58.3494 24.126 59.3644 24.4116C60.3795 24.6971 61.3606 25.214 62.3078 25.9621C63.255 26.7102 64.1545 27.6564 65.0063 28.8009C66.8242 31.2433 67.6823 33.5326 67.5805 35.6687C67.4823 37.7805 66.4423 39.5739 64.4605 41.049C63.3998 41.8385 62.3436 42.3427 61.2919 42.5615C60.2403 42.7804 59.2069 42.747 58.1919 42.4614C57.1909 42.1655 56.2167 41.6435 55.2695 40.8954C54.3223 40.1472 53.4228 39.201 52.571 38.0565ZM55.5856 35.8127C56.1362 36.5524 56.708 37.1896 57.3011 37.7241C57.8837 38.2447 58.4669 38.6348 59.0505 38.8945C59.6481 39.1437 60.2428 39.2433 60.8345 39.1933C61.4262 39.1432 62.0012 38.9105 62.5595 38.4949C63.5783 37.7366 64.0708 36.7519 64.0369 35.5409C64.0031 34.3299 63.3213 32.8311 61.9917 31.0447C61.4619 30.3329 60.9057 29.7167 60.323 29.1961C59.7543 28.6651 59.1729 28.2628 58.5789 27.9893C57.9849 27.7157 57.392 27.6039 56.8003 27.6539C56.1982 27.69 55.604 27.9262 55.0178 28.3625C53.999 29.1208 53.5169 30.1194 53.5715 31.3584C53.6158 32.5834 54.2871 34.0682 55.5856 35.8127Z" fill="black"/>
<path d="M78.7422 16.8287L81.977 15.8058L85.5335 27.0528C85.8902 28.1808 86.0478 29.1985 86.0062 30.1057C85.9647 31.013 85.7624 31.816 85.3994 32.5147C85.0364 33.2134 84.5128 33.8078 83.8284 34.2979C83.144 34.788 82.3456 35.1773 81.4332 35.4658C77.0207 36.8612 74.1771 35.5433 72.9024 31.5123L69.2121 19.8423L72.6211 18.7643L76.0989 29.7625C76.314 30.4426 76.5556 31.0049 76.8239 31.4492C77.1034 31.8717 77.4232 32.1903 77.783 32.405C78.1376 32.6031 78.5349 32.7055 78.975 32.7123C79.4099 32.7025 79.8927 32.6137 80.4235 32.4459C81.4686 32.1154 82.1316 31.5864 82.4125 30.859C82.6934 30.1315 82.6292 29.1208 82.2201 27.8269L78.7422 16.8287Z" fill="black"/>
<path d="M105.791 20.3427L100.468 20.2399L100.177 35.3213L96.6022 35.2523L96.8933 20.1709L91.5443 20.0677L91.6058 16.8844L105.852 17.1594L105.791 20.3427Z" fill="black"/>
<path d="M135.983 32.0297L138.929 33.7121L133.079 43.9556C132.493 44.9829 131.852 45.7891 131.157 46.3741C130.463 46.9591 129.736 47.3554 128.976 47.5627C128.217 47.7701 127.425 47.7887 126.6 47.6185C125.776 47.4482 124.948 47.1259 124.117 46.6514C120.098 44.3565 119.137 41.3733 121.234 37.702L127.303 27.0733L130.408 28.8462L124.688 38.8631C124.334 39.4825 124.085 40.0415 123.941 40.54C123.82 41.0321 123.803 41.4831 123.889 41.8931C123.984 42.288 124.179 42.6494 124.472 42.9773C124.774 43.2901 125.167 43.5846 125.651 43.8606C126.602 44.4042 127.441 44.5323 128.166 44.2451C128.891 43.9579 129.59 43.225 130.263 42.0466L135.983 32.0297Z" fill="black"/>
<path d="M140.723 57.0422C141.138 56.6706 141.335 56.2131 141.315 55.67C141.307 55.1397 141.198 54.5485 140.987 53.8964C140.801 53.2455 140.574 52.5494 140.306 51.8078C140.063 51.0677 139.895 50.3192 139.8 49.5625C139.731 48.8072 139.803 48.0534 140.016 47.3011C140.241 46.5619 140.736 45.8496 141.5 45.1644C142.161 44.5721 142.83 44.1712 143.507 43.9617C144.196 43.7406 144.883 43.6857 145.567 43.7969C146.262 43.9211 146.938 44.1921 147.592 44.6097C148.247 45.0274 148.883 45.5795 149.498 46.2661C150.206 47.0563 150.803 47.8651 151.288 48.6924C151.785 49.508 152.108 50.2587 152.255 50.9444L149.271 52.1122C149.197 51.6646 148.976 51.0919 148.607 50.3942C148.252 49.6848 147.778 48.9998 147.186 48.3392C146.628 47.7174 146.075 47.3484 145.527 47.2322C144.991 47.129 144.515 47.2632 144.101 47.6349C143.712 47.9833 143.522 48.4226 143.53 48.9529C143.55 49.496 143.653 50.093 143.839 50.7439C144.037 51.4077 144.257 52.1096 144.5 52.8498C144.755 53.603 144.917 54.3572 144.986 55.1126C145.081 55.8693 145.015 56.6173 144.79 57.3565C144.59 58.0971 144.127 58.7926 143.401 59.443C142.676 60.0934 141.937 60.5336 141.185 60.7636C140.458 60.995 139.722 61.0472 138.977 60.9204C138.244 60.8064 137.515 60.5141 136.789 60.0432C136.075 59.5854 135.387 58.9872 134.725 58.2488C133.854 57.2773 133.178 56.341 132.697 55.44C132.217 54.539 131.91 53.8323 131.778 53.32L134.818 52.1367C134.868 52.3489 134.946 52.6058 135.053 52.9073C135.172 53.2217 135.32 53.5563 135.497 53.911C135.675 54.2657 135.878 54.6217 136.104 54.9791C136.343 55.3494 136.613 55.7029 136.915 56.0397C137.624 56.83 138.293 57.3162 138.924 57.4985C139.579 57.6821 140.179 57.53 140.723 57.0422Z" fill="black"/>
<path d="M152.641 77.3755L154.065 83.7694L151.135 84.4214L149.712 78.0275L152.641 77.3755Z" fill="black"/>
</svg>
